# xmcd
#
# Track frame offsets: 
#        187
#        21492
#        49875
#        56420
#        71162
#        80592
#        94502
#        99975
#        111775
#        121467
#        138185
#
# Disc length: 2220 seconds
#
# Revision: 6
# Processed by: cddbd v1.5.2PL0 Copyright (c) Steve Scherf et al.
# Submitted via: ExactAudioCopy v1.0b3
#
DISCID=9308aa0b
DTITLE=冨田勲 - 展覧会の絵 RCCD-102
DYEAR=1984
DGENRE=Classical
TTITLE0=プロムナード~こびと
TTITLE1=プロムナード~古城
TTITLE2=プロムナード~チュイルリーの庭
TTITLE3=ビドロ
TTITLE4=プロムナード~卵のからをつけたひなの踊り
TTITLE5=サミュエル・ゴールデンベルグとシュミュイレ
TTITLE6=リモージュの市場
TTITLE7=カタコンブ
TTITLE8=死せる言葉による死者への話しかけ
TTITLE9=バーバ・ヤーガの小屋
TTITLE10=キエフの大門
EXTD=
EXTT0=
EXTT1=
EXTT2=
EXTT3=
EXTT4=
EXTT5=
EXTT6=
EXTT7=
EXTT8=
EXTT9=
EXTT10=
PLAYORDER=
